/* XPM */
static char *result[] = {
/* columns rows colors chars-per-pixel */
"100 100 25 1 ",
"  c black",
". c #9B5850",
"X c #A05B53",
"o c #A15C54",
"O c #A35D54",
"+ c #A35E55",
"@ c #B97555",
"# c #BE7857",
"$ c #BF7958",
"% c #C17D56",
"& c #C17B59",
"* c #AD9600",
"= c #AD9703",
"- c #C18C14",
"; c #CAAF00",
": c #F7AD04",
"> c #FAC503",
", c #FFDE00",
"< c #FBF236",
"1 c #EC9F5F",
"2 c #FFE955",
"3 c #0019B1",
"4 c #639BFF",
"5 c #27CFF3",
"6 c #F3BF94",
/* pixels */
"XXXXXXXXXXXXXXXXXXXXXXXXXXXXXXXXXXXXXXXXXXXXXXXXXXXXXXXXXXXXXXXXXXXXXXXXXXXXXXXXXXXXXXXXXXXXXXXXXXXX",
"XXXXXXXXXXXXXXXXXXXXXXXXXXXXXXXXXXXXXXXXXXXXXXXXXXXXXXXXXXXXXXXXXXXXXXXXXXXXXXXXXXXXXXXXXXXXXXXXXXXX",
"$$$$$$$$$$$XX#$$$$$$$$$$$$$$$$$$$$$$$$$$$$$Xo#$$$$$$$$$$$$$$$$$$$$$$$$$$$$Xo#$$$$$$$$$$$$$$$$$$$$$$$",
"$$$$$$$$$$$XX#$$$$$$$$$$$$$$$$$$$$$$$$$$$$$Xo#$$$$$$$$$$$$$$$$$$$$$$$$$$$$Xo#$$$$$$$$$$$$$$$$$$$$$$$",
"$$$$$$$$$$$XX#$$$$$$$$$$$$$$$$$$$$$$$$$$$$$Xo#$$$$$$$$$$$$$$$$$$$$$$$$$$$$Xo#$$$$$$$$$$$$$$$$$$$$$$$",
"$$$$$$$$$$$XX#$$$$$$$$$$$$$$$$$$$$$$$$$$$$$Xo#$$$$$$$$$$$$$$$$$$$$$$$$$$$$Xo#$$$$$$$$$$$$$$$$$$$$$$$",
"$$$$$$$$$$$XX#$$$$$$$$$$$$$$$$$$$$$$$$$$$$$Xo#$$$$$$$$$$$$$$$$$$$$$$$$$$$$Xo#$$$$$$$$$$$$$$$$$$$$$$$",
"$$$$$$$$$$$XX#$$$$$$$$$$$$$$$$$$$$$$$$$$$$$Xo#$$$$$$$$$$$$$$$$$$$$$$$$$$$$Xo#$$$$$$$$$$$$$$$$$$$$$$$",
"$$$$$$$$$$$XX#$$$$$$$$$$$$$$$$$$$$$$$$$$$$$Xo#$$$$$$$$$$$$$$$$$$$$$$$$$$$$Xo#$$$$$$$$$$$$$$$$$$$$$$$",
"$$$$$$$$$$$XX#$$$$$$$$$$$$$$$$$$$$$$$$$$$$$Xo#$$$$$$$$$$$$$$$$$$$$$$$$$$$$Xo#$$$$$$$$$$$$$$$$$$$$$$$",
"$$$$$$$$$$$XX#$$$$$$$$$$$$$$$$$$$$$$$$$$$$$Xo#$$$$$$$$$$$$$$$$$$$$$$$$$$$$Xo#$$$$$$$$$$$$$$$$$$$$$$$",
"$$$$$$$$$$$XX#$$$$$$$$$$$$$$$$$$$$$$$$$$$$$Xo#$$$$$$$$$$$$$$$$$$$$$$$$$$$$Xo#$$$$$$$$$$$$$$$$$$$$$$$",
"$$$$$$$$$$$XX#$$$$$$$$$$$$$$$$$$$$$$$$$$$$$Xo#$$$$$$$$$$$$$$$$$$$$$$$$$$$$Xo#$$$$$$$$$$$$$$$$$$$$$$$",
"1111111111166611111111111111111111111111111661111111111111111111111111111166111111111111111111111111",
"1111111111166611111111111111111111111111111661111111111111111111111111111166111111111111111111111111",
"XXXXXXXXXXXXXXXXXXXXXXXXXXXXXXXXXXXXXXXXXXXXXXXXXXXXXXXXXXXXXXXXXXXXXXXXXXXXXXXXXXXXXXXXXXXXXXXXXXXX",
"$$$$$$$$$$$$$$$$$$$$$$$$$$$$$$$$$$$$$$$$$$$$$$$$$$$$$$$XX$$$$$$$$$$$$$$$$$$$$$$$$$$$$$XX$$$$$$$$$$$$",
"$$$$$$$$$$$$$$$$$$$$$$$$$$$$$$$$$$$$$$$$$$$$$$$$$$$$$$$XX$$$$$$$$$$$$$$$$$$$$$$$$$$$$$XX$$$$$$$$$$$$",
"$$$$$$$$$$$$$$$$$$$$$$$$$$$                                                @@@@@@@$$$$XX$$$$$$$$$$$$",
"$$$$$$$$$$$$$$$$$$$$$$$$$$  3333333333333333333333333333333333333333333333  @#@$#$$$$$XX$$$$$$$$$$$$",
"$$$$$$$$$$$$$$$$$$$$$$$$$ 5 34444444444444444444444444444444444444444444443  $@@@$$$$$XX$$$$$$$$$$$$",
"$$$$$$$$$$$$$$$$$$$$$$$$  5 44555555555555555555555555555555555555555555544 4 $@@$$$$$XX$$$$$$$$$$$$",
"$$$$$$$$$$$$$$$$$$$$$$$$ 455 555555555555555555555555555555555555555555555 54 $@@$$$$$XX$$$$$$$$$$$$",
"$$$$$$$$$$$$$$$$$$$$$$$$ 345                                               43 @@$$$$$$XX$$$$$$$$$$$$",
"$$$$$$$$$$$$$$$$$$$$$$$$ 3455 $@@@$$$$$$$$$$$$$$$$@$$$$XX$$$$$$$$$$$$@@$@ 543 @$$$$$$$XX$$$$$$$$$$$$",
"111111111111111111111111 3345 1111111111111111111111111OO111111111111111 543 11111111166111111111111",
"1111111111111111111111111 3345 111111111111111111111111OO11111111111111 5533 11111111166111111111111",
"XXXXXXXXXXXXXXXXXXXXXXXXo 33455 XXXXXXXXXXXXXXXXXXoXXXXXXXXXXXXXXXXXXX. 5433 XXXXXXXXXXXXXXXXXXXXXXX",
"XXXXXXXXXXXXXXXXXXXXXXXXXo 3345 XXXXXXXXXXXXXXXXXXoXXXXXXXXXXXXXXXXXXX 5433 XXXXXXXXXXXXXXXXXXXXXXXX",
"$$$$$XX$$$$$$$$$$$$$$$$$$$ 33455 $$$$$$$$$$$$$$$$$@$$$$$$$$$$$$$$$$$$@ 5433 $$$$$$$$$$$$$$$$$$$$$$$$",
"$$$$$XX$$$$$$$$$$$$$$$$$$$$ 33455 $$$$$$$$$$$$$$$$@$$$$$$$$$$$$$$$$$@ 5433 $$$$$$$$$$$$$$$$$$$$$$$$$",
"$$$$$XX$$$$$$$$$$$$$$$$$$$$$ 3445 @$$$$$$$$$$$$$$$@$$$$$$$$$$$$$$$$$ 54333 $$$$$$$$$$$$$$$$$$$$$$$$$",
"$$$$$XX$$$$$$$$$$$$$$$$$$$$$ 33455 $$$$$$$$$$$$$$$@$$$$$$$$$$$$$$$$@ 5433 $$$$$$$$$$$$$$$$$$$$$$$$$$",
"$$$$$XX$$$$$$$$$$$$$$$$$$$$$# 33455 $$$$$$$$$$$$$$@$$$$$$$$$$$$$$$$ 5433 $$$$$$$$$$$$$$$$$$$$$$$$$$$",
"$$$$$XX$$$$$$$$$$$$$$$$$$$$$$ 33445 $$$$$$$$$$$$$$@$$$$$$$$$$$$$$$ 54333 $$$$$$$$$$$$$$$$$$$$$$$$$$$",
"$$$$$XX$$$$$$$$$$$$$$$$$$$$$$$ 33455 $$$$$$$$$$$$$@$$$$$$$$$$$$$$ 55433 $$$$$$$$$$$$$$$$$$$$$$$$$$$$",
"$$$$$XX$$$$$$$$$$$$$$$$$$$$$$$@ 34455 $$$$$$$$$$$$@$$$$$$$$$$$$$ 55433 $$$$$$$$$$$$$$$$$$$$$$$$$$$$$",
"1111166111111111111111111111111 33455 11111111111111111111111111 54433 11111111111111111111111111111",
"11111661111111111111111111111111 33455 111111111111111111111111 55433 111111111111111111111111111111",
"XXXXXXXXXXXXXXXXXXXXXXXXXXXXXXXo 33445 XXXXXXXXXXXoXXXXXXXXXXXX 54333 XXXXXXXXXXXXXXXXXXXXXXXXXXXXXX",
"XXXXXXXXXXXXXXXXXXXXXXXXXXXXXXXXo 33455 XXXXXXXXXXoXXXXXXXXXXX 54433 XXXXXXXXXXXXXXXXXXXXXXXXXXXXXXX",
"$$$$$$$$$$$$$$$$$$Xo$$$$$$$$$$$$$ 334455 $$$$$$$$$@$$$$$$$$$$ 55433 $$$$$$$$$$$$$$Xo$$$$$$$$$$$$$$$$",
"$$$$$$$$$$$$$$$$$$Xo$$$$$$$$$$$$$$ 33445 $$$$$$$$$@$$$$$$$$$$ 54333 $$$$$$$$$$$$$$Xo$$$$$$$$$$$$$$$$",
"$$$$$$$$$$$$$$$$$$Xo$$$$$$$$$$$$$$# 33455 $$$$$$$$@$$$$$$$$$ 54433 $$$$$$$$$$$$$$$Xo$$$$$$$$$$$$$$$$",
"$$$$$$$$$$$$$$$$$$Xo$$$$$$$$$$$$$$$ 334455 $$$$$$$@$$$$$$$$ 55433 $$$$$$$$$$$$$$$$Xo$$$$$$$$$$$$$$$$",
"$$$$$$$$$$$$$$$$$$Xo$$$$$$$$$$$$$$$$ 33455 $$$$$$$@$$$$$$$$ 54433 $$$$$$$$$$$$$$$$Xo$$$$$$$$$$$$$$$$",
"$$$$$$$$$$$$$$$$$$Xo$$$$$$$$$$$$$$$$ 334455 $$$$$$@$$$$$$$ 54433 $$$$$$$$$$$$$$$$$Xo$$$$$$$$$$$$$$$$",
"$$$$$$$$$$$$$$$$$$Xo$$$$$$$$$$$$$$$$$ 334455 $$$$$@$$$$$$ 554333 $$$$$$$$$$$$$$$$$Xo$$$$$$$$$$$$$$$$",
"$$$$$$$$$$$$$$$$$$Xo$$$$$$$$$$$$$$$$$$ 33455 $$$$$@$$$$$ 554433 $$$$$$$$$$$$$$$$$$Xo$$$$$$$$$$$$$$$$",
"11111111111111111166111111111111111111 334455 1111111111 54433 1111111111111111111661111111111111111",
"111111111111111111661111111111111111111 334455 11111111 554333 1111111111111111111661111111111111111",
"XXXXXXXXXXXXXXXXXXXXXXXXXXXXXXXXXXXXXXX 334455 XXXoXXX 554433 XXXXXXXXXXXXXXXXXXXXXXXXXXXXXXXXXXXXXX",
"XXXXXXXXXXXXXXXXXXXXXXXXXXXXXXXXXXXXXXXX 334455 XXoXX 554433 XXXXXXXXXXXXXXXXXXXXXXXXXXXXXXXXXXXXXXX",
"$$$$$$$$$$$$$$$$$$$$$$$$$$$$$$$$Xo$$$$$$ 333455 $$@$$ 554433 XX$$$$$$$$$$$$$$$$$$$$$$$$$$$$$$$XX$$$$",
"$$$$$$$$$$$$$$$$$$$$$$$$$$$$$$$$Xo$$$$$$$ 334455 $@$ 554433 $XX$$$$$$$$$$$$$$$$$$$$$$$$$$$$$$$XX$$$$",
"$$$$$$$$$$$$$$$$$$$$$$$$$$$$$$$$Xo$$$$$$$$ 334455 @ 5544333 $XX$$$$$$$$$$$$$$$$$$$$$$$$$$$$$$$XX$$$$",
"$$$$$$$$$$$$$$$$$$$$$$$$$$$$$$$$Xo$$$$$$$$ 334455 @ 554433 $$oX$$$$$$$$$$$$$$$$$$$$$$$$$$$$$$$XX$$$$",
"$$$$$$$$$$$$$$$$$$$$$$$$$$$$$$$$Xo$$$$$$$$$ 334455 554433 $$$oX$$$$$$@$$$$$$$$$$$$$$$$$$$$$$$$XX$$$$",
"$$$$$$$$$$$$$$$$$$$$$$$$$$$$$$$$Xo$$$$$$$$$ 3,,,,,,,,,,,3 $$$oX$$$$$$$$$$$$$$$$$$$$$$$$$$$$$$$XX$$$$",
"$$$$$$$$$$$$$$$$$$$$$$$$$$$$$$$$Xo$$$$$$$$$$ ,,,,,,,,,,, $$$$oX$$$$$$$$$$$$$$$$$$$$$$$$$$$$$$$XX$$$$",
"11111111111111111111111111111111661111111111***::::::::<<<111661111111111111111111111111111111661111",
"11111111111111111111111111111111661111111111*--,,,,,,,,><<111661111111111111111111111111111111661111",
"XXXXXXXXXXXXXXXXXXXXXXXXXXXXXXXXXXXXXXXXXX**--;,,,,,,,,><<<XXXXXXXXXXXXXXXooXXXXXXXXXXXXXXXXXXXXXXXX",
"XXXXXXXXXXXXXXXXXXXXXXXXXXXXXXXXXXXXXXXXXX**-;,,,,,,,,,><<<XXXXXXXXXXXXXXoooXXXXXXXXXXXXXXXXXXXXXXXX",
"$$$$$$$$$$$XX$$$$$$$$$$$$$$$$$$$$$$$$$$$$***-;,,,,==,,,2>><<<$$$$$$$$$$$$$$$$$$$$$$$$$$$$$$$$$$$$$$$",
"$$$$$$$$$$$XX$$$$$$$$$$$$$$$$$$$$$$$$$$$$**-;,,,,===,,,,22><<$$$$$$$$$$$$$$$$$$$$$$$$$$$$$$$$$$$$$$$",
"$$$$$$$$$$$XX$$$$$$$$$$$$$$$$$$$$$$$$$$$$**-;,,,====,,,,22><<$$$$$$$$$$$$$$$$$$$$$$$$$$$$$$$$$$$$$$$",
"$$$$$$$$$$$XX$$$$$$$$$$$$$$$$$$$$$$$$$$$$**-;,,,,,==,,,,22><<$$$$$$$$$$$$$$$$$$$$$$$$$$$$$$$$$$$$$$$",
"$$$$$$$$$$$XX$$$$$$$$$$$$$$$$$$$$$$$$$$$$**-;,,,,,==,,,,22><<$$$$$$$$$$$$$$$$$$$$$$$$$$$$$$$$$$$$$$$",
"$$$$$$$$$$$XX$$$$$$$$$$$$$$$$$$$$$$$$$$$$**-;,,,,,==,,,,22><<$$$$$$$$$$$$$$$$$$$$$$$$$$$$$$$$$$$$$$$",
"$$$$$$$$$$$XX$$$$$$$$$$$$$$$$$$$$$$$$$$$$**-;,,,,,==,,,,22><<$$$$$$$$$$$$$$$$$$$$$$$$$$$$$$$$$$$$$$$",
"$$$$$$$$$$$XX$$$$$$$$$$$$$$$$$$$$$$$$$$$$**-;,,,,,==,,,,22><<$$$$$$$$$$$$$$$$$$$$$$$$$$$$$$$$$$$$$$$",
"$$$$$$$$$$$XX$$$$$$$$$$$$$$$$$$$$$$$$$$$$**-;,,,======,,22><<$$$$$$$$$$$$$$$$$$$$$$$$$$$$$$$$$$$$$$$",
"$$$$$$$$$$$XX$$$$$$$$$$$$$$$$$$$$$$$$$$$$**-;,,========,22><<%$$$$$$$$$$$$$$$$$$$$$$$$$$$$$$$$$$$$$$",
"11111111111661111111111111111111111111111***-;,,,,,,,,,2>><<<111111111111111111111111111111111111111",
"11111111111661111111111111111111111111111***-;;,,,,,,,,2>><<<111111111111111111111111111111111111111",
"XXXXXXXXXXXXXXXXXXXXXXXXXXXXXXXXXXXXXXXXXX***--,,,,,,,,><<<XXXXXXXXXXXXXXXXXXXXXXXXXXXXXXXXXXXXXXXXX",
"XXXXXXXXXXXXXXXXXXXXXXXXXXXXXXXXXXXXXXXXXX***--,,,,,,,,><<<XXXXXXXXXXXXXXXXXXXXXXXXXXXXXXXXXXXXXXXXX",
"$$$$$$$$$$$$$$$$$$$$$$$$Xo$$$$$$$$$$$$$$$$$$***::::::::<<<$$$$$$$$$$$$$$$$$$$$$$$$$$$$XX$$$$$$$$$$$$",
"$$$$$$$$$$$$$$$$$$$$$$$$Xo$$$$$$$$$$$$$$$$$$$,,,,,,,,,,,X#$$$$$$$$$$$$$$$$$$$$$$$$$$$$XX$$$$$$$$$$$$",
"$$$$$$$$$$$$$$$$$$$$$$$$Xo$$$$$$$$$$$$$$$$$$$,,,,,,,,,,,X#$$$$$$$$$$$$$$$$$$$$$$$$$$$$XX$$$$$$$$$$$$",
"$$$$$$$$$$$$$$$$$$$$$$$$Xo$$$$$$$$$$$$$$$$$$$$$$$$$$$$$oX#$$$$$$$$$$$$$$$$$$$$$$$$$$$$XX$$$$$$$$$$$$",
"$$$$$$$$$$$$$$$$$$$$$$$$Xo$$$$$$$$$$$$$$$$$$$$$$$$$$$$$oX#$$$$$$$$$$$$$$$$$$$$$$$$$$$$XX$$$$$$$$$$$$",
"$$$$$$$$$$$$$$$$$$$$$$$$Xo$$$$$$$$$$$$$$$$$$$$$$$$$$$$$oX#$$$$$$$$$$$$$$$$$$$$$$$$$$$$XX$$$$$$$$$$$$",
"$$$$$$$$$$$$$$$$$$$$$$$$Xo$$$$$$$$$$$$$$$$$$$$$$$$$$$$$XX$$$$$$$$$$$$$$$$$$$$$$$$$$$$$XX$$$$$$$$$$$$",
"$$$$$$$$$$$$$$$$$$$$$$$$Xo$$$$$$$$$$$$$$$$$$$$$$$$$$$$$XX$$$$$$$$$$$$$$$$$$$$$$$$$$$$$XX$$$$$$$$$$$$",
"1111111111111111111111116611111111111111111111111111111661111111111111111111111111111166111111111111",
"1111111111111111111111116611111111111111111111111111111661111111111111111111111111111166111111111111",
"XXXXXXX+XXXXXXXXXXXXXXXXXXXXXXXXXXXXXXXXXXXXXXXXXXXXXXXXXXXXXXXXXXXXXXXXXXXXXXXXXXXXXXXXXXXXXXXXXXXX",
"XXXXXXX+XXXXXXXXXXXXXXXXXXXXXXXXXXXXXXXXXXXXXXXXXXXXXXXXXXXXXXXXXXXXXXXXXXXXXXXXXXXXXXXXXXXXXXXXXXXX",
"$$$$$XX&$$$$$$$$$$$$$$$$$$$$$$$$$$$$XX$$$$$$$$$$$$$$$$$$$$$$$$$$$$$$Xo$$$$$$$$$$$$$$$$$$$$$$$$$$$$$$",
"$$$$$XX&$$$$$$$$$$$$$$$$$$$$$$$$$$$$XX$$$$$$$$$$$$$$$$$$$$$$$$$$$$$$Xo$$$$$$$$$$$$$$$$$$$$$$$$$$$$$$",
"$$$$$XX&$$$$$$$$$$$$$$$$$$$$$$$$$$$$XX$$$$$$$$$$$$$$$$$$$$$$$$$$$$$$Xo$$$$$$$$$$$$$$$$$$$$$$$$$$$$$$",
"$$$$$XX&$$$$$$$$$$$$$$$$$$$$$$$$$$$$XX$$$$$$$$$$$$$$$$$$$$$$$$$$$$$$Xo$$$$$$$$$$$$$$$$$$$$$$$$$$$$$$",
"$$$$$XX&$$$$$$$$$$$$$$$$$$$$$$$$$$$$XX$$$$$$$$$$$$$$$$$$$$$$$$$$$$$$Xo$$$$$$$$$$$$$$$$$$$$$$$$$$$$$$",
"$$$$$XX&$$$$$$$$$$$$$$$$$$$$$$$$$$$$XX$$$$$$$$$$$$$$$$$$$$$$$$$$$$$$Xo$$$$$$$$$$$$$$$$$$$$$$$$$$$$$$",
"$$$$$XX&$$$$$$$$$$$$$$$$$$$$$$$$$$$$XX$$$$$$$$$$$$$$$$$$$$$$$$$$$$$$Xo$$$$$$$$$$$$$$$$$$$$$$$$$$$$$$",
"$$$$$XX&$$$$$$$$$$$$$$$$$$$$$$$$$$$$XX$$$$$$$$$$$$$$$$$$$$$$$$$$$$$$Xo$$$$$$$$$$$$$$$$$$$$$$$$$$$$$$",
"1111166111111111111111111111111111116611111111111111111111111111111166111111111111111111111111111111",
"1111166111111111111111111111111111116611111111111111111111111111111166111111111111111111111111111111"
};
