/* XPM */
static char *result[] = {
/* columns rows colors chars-per-pixel */
"100 100 23 1 ",
"  c black",
". c #A05B53",
"X c #A15C54",
"o c #A35D54",
"O c #A35E55",
"+ c #B97555",
"@ c #BE7857",
"# c #BF7958",
"$ c #C17B59",
"% c #AD9600",
"& c #AD9703",
"* c #C18C14",
"= c #CAAF00",
"- c #F7AD04",
"; c #FAC503",
": c #FFDE00",
"> c #FBF236",
", c #EC9F5F",
"< c #FFE955",
"1 c #0019B1",
"2 c #639BFF",
"3 c #27CFF3",
"4 c #F3BF94",
/* pixels */
"....................................................................................................",
"....................................................................................................",
"###########..@#############################.X@############################.X@#######################",
"###########..@#############################.X@############################.X@#######################",
"###########..@#############################.X@############################.X@#######################",
"###########..@#############################.X@############################.X@#######################",
"###########..@#############################.X@############################.X@#######################",
"###########..@#############################.X@############################.X@#######################",
"###########..@#############################.X@############################.X@#######################",
"###########..@#############################.X@############################.X@#######################",
"###########..@#############################.X@############################.X@#######################",
"###########..@#############################.X@############################.X@#######################",
"###########..@#############################.X@############################.X@#######################",
",,,,,,,,,,,444,,,,,,,,,,,,,,,,,,,,,,,,,,,,,44,,,,,,,,,,,,,,,,,,,,,,,,,,,,,44,,,,,,,,,,,,,,,,,,,,,,,,",
",,,,,,,,,,,444,,,,,,,,,,,,,,,,,,,,,,,,,,,,,44,,,,,,,,,,,,,,,,,,,,,,,,,,,,,44,,,,,,,,,,,,,,,,,,,,,,,,",
"....................................................................................................",
"#######################################################..#############################..############",
"#######################################################..#############################..############",
"#######################################################..#############################..############",
"###########################                                                ###########..############",
"##########################  1111111111111111111111111111111111111111111111  ##########..############",
"######################### 3 12222222222222222222222222222222222222222222221  #########..############",
"########################  3 22333333333333333333333333333333333333333333322 2 ########..############",
"######################## 233 333333333333333333333333333333333333333333333 32 ########..############",
"######################## 123                                               21 ########..############",
",,,,,,,,,,,,,,,,,,,,,,,, 1233 ,,,,,,,,,,,,,,,,,,,,,,,,,oo,,,,,,,,,,,,,,,, 321 ,,,,,,,,44,,,,,,,,,,,,",
",,,,,,,,,,,,,,,,,,,,,,,, 1123 ,,,,,,,,,,,,,,,,,,,,,,,,,oo,,,,,,,,,,,,,,, 321 ,,,,,,,,,44,,,,,,,,,,,,",
"......................... 1123 ........................................ 3311 .......................",
"......................... 11233 ....................................... 3211 .......................",
"#####..################### 1123 ###################################### 3211 ########################",
"#####..################### 11233 ##################################### 3211 ########################",
"#####..#################### 11233 ################################### 3211 #########################",
"#####..##################### 1223 ################################## 32111 #########################",
"#####..##################### 11233 ################################# 3211 ##########################",
"#####..###################### 11233 ############################### 3211 ###########################",
"#####..###################### 11223 ############################## 32111 ###########################",
"#####..####################### 11233 ############################ 33211 ############################",
",,,,,44,,,,,,,,,,,,,,,,,,,,,,,, 12233 ,,,,,,,,,,,,,,,,,,,,,,,,,, 33211 ,,,,,,,,,,,,,,,,,,,,,,,,,,,,,",
",,,,,44,,,,,,,,,,,,,,,,,,,,,,,, 11233 ,,,,,,,,,,,,,,,,,,,,,,,,,, 32211 ,,,,,,,,,,,,,,,,,,,,,,,,,,,,,",
"................................ 11233 ........................ 33211 ..............................",
"................................ 11223 ........................ 32111 ..............................",
"##################.X############# 11233 ###################### 32211 #############.X################",
"##################.X############# 112233 #################### 33211 ##############.X################",
"##################.X############## 11223 #################### 32111 ##############.X################",
"##################.X############### 11233 ################## 32211 ###############.X################",
"##################.X############### 112233 ################ 33211 ################.X################",
"##################.X################ 11233 ################ 32211 ################.X################",
"##################.X################ 112233 ############## 32211 #################.X################",
"##################.X################# 112233 ############ 332111 #################.X################",
",,,,,,,,,,,,,,,,,,44,,,,,,,,,,,,,,,,,, 11233 ,,,,,,,,,,, 332211 ,,,,,,,,,,,,,,,,,,44,,,,,,,,,,,,,,,,",
",,,,,,,,,,,,,,,,,,44,,,,,,,,,,,,,,,,,, 112233 ,,,,,,,,,, 32211 ,,,,,,,,,,,,,,,,,,,44,,,,,,,,,,,,,,,,",
"....................................... 112233 ........ 332111 .....................................",
"....................................... 112233 ....... 332211 ......................................",
"################################.X###### 112233 ##### 332211 ..###############################..####",
"################################.X###### 111233 ##### 332211 ..###############################..####",
"################################.X####### 112233 ### 332211 #..###############################..####",
"################################.X######## 112233 # 3322111 #X.###############################..####",
"################################.X######## 112233 # 332211 ##X.######+########################..####",
"################################.X######### 112233 332211 ###X.###############################..####",
"################################.X######### 1:::::::::::1 ###X.###############################..####",
",,,,,,,,,,,,,,,,,,,,,,,,,,,,,,,,44,,,,,,,,,, ::::::::::: ,,,,44,,,,,,,,,,,,,,,,,,,,,,,,,,,,,,,44,,,,",
",,,,,,,,,,,,,,,,,,,,,,,,,,,,,,,,44,,,,,,,,,,%%%-------->>>,,,44,,,,,,,,,,,,,,,,,,,,,,,,,,,,,,,44,,,,",
"............................................%**::::::::;>>................XX........................",
"..........................................%%**=::::::::;>>>..............XXX........................",
"###########..#############################%%*=:::::::::;>>>#########################################",
"###########..############################%%%*=::::&&:::<;;>>>#######################################",
"###########..############################%%*=::::&&&::::<<;>>#######################################",
"###########..############################%%*=:::&&&&::::<<;>>#######################################",
"###########..############################%%*=:::::&&::::<<;>>#######################################",
"###########..############################%%*=:::::&&::::<<;>>#######################################",
"###########..############################%%*=:::::&&::::<<;>>#######################################",
"###########..############################%%*=:::::&&::::<<;>>#######################################",
"###########..############################%%*=:::::&&::::<<;>>#######################################",
"###########..############################%%*=:::&&&&&&::<<;>>#######################################",
",,,,,,,,,,,44,,,,,,,,,,,,,,,,,,,,,,,,,,,,%%*=::&&&&&&&&:<<;>>,,,,,,,,,,,,,,,,,,,,,,,,,,,,,,,,,,,,,,,",
",,,,,,,,,,,44,,,,,,,,,,,,,,,,,,,,,,,,,,,,%%%*=:::::::::<;;>>>,,,,,,,,,,,,,,,,,,,,,,,,,,,,,,,,,,,,,,,",
".........................................%%%*==::::::::<;;>>>.......................................",
"..........................................%%%**::::::::;>>>.........................................",
"########################.X################%%%**::::::::;>>>###########################..############",
"########################.X##################%%%-------->>>############################..############",
"########################.X###################:::::::::::.@############################..############",
"########################.X###################:::::::::::.@############################..############",
"########################.X#############################X.@############################..############",
"########################.X#############################X.@############################..############",
"########################.X#############################..#############################..############",
"########################.X#############################..#############################..############",
",,,,,,,,,,,,,,,,,,,,,,,,44,,,,,,,,,,,,,,,,,,,,,,,,,,,,,44,,,,,,,,,,,,,,,,,,,,,,,,,,,,,44,,,,,,,,,,,,",
",,,,,,,,,,,,,,,,,,,,,,,,44,,,,,,,,,,,,,,,,,,,,,,,,,,,,,44,,,,,,,,,,,,,,,,,,,,,,,,,,,,,44,,,,,,,,,,,,",
".......O............................................................................................",
".......O............................................................................................",
"#####..$############################..##############################.X##############################",
"#####..$############################..##############################.X##############################",
"#####..$############################..##############################.X##############################",
"#####..$############################..##############################.X##############################",
"#####..$############################..##############################.X##############################",
"#####..$############################..##############################.X##############################",
"#####..$############################..##############################.X##############################",
"#####..$############################..##############################.X##############################",
",,,,,44,,,,,,,,,,,,,,,,,,,,,,,,,,,,,44,,,,,,,,,,,,,,,,,,,,,,,,,,,,,,44,,,,,,,,,,,,,,,,,,,,,,,,,,,,,,",
",,,,,44,,,,,,,,,,,,,,,,,,,,,,,,,,,,,44,,,,,,,,,,,,,,,,,,,,,,,,,,,,,,44,,,,,,,,,,,,,,,,,,,,,,,,,,,,,,"
};
