/* XPM */
static char *result[] = {
/* columns rows colors chars-per-pixel */
"100 100 22 1 ",
"  c black",
". c #A05B53",
"X c #A15C54",
"o c #A35E55",
"O c #B97555",
"+ c #BE7857",
"@ c #BF7958",
"# c #C17B59",
"$ c #AD9600",
"% c #AD9703",
"& c #C18C14",
"* c #CAAF00",
"= c #F7AD04",
"- c #FAC503",
"; c #FFDE00",
": c #FBF236",
"> c #EC9F5F",
", c #FFE955",
"< c #0019B1",
"1 c #639BFF",
"2 c #27CFF3",
"3 c #F3BF94",
/* pixels */
"....................................................................................................",
"....................................................................................................",
"@@@@@@@@@@@..+@@@@@@@@@@@@@@@@@@@@@@@@@@@@@.X+@@@@@@@@@@@@@@@@@@@@@@@@@@@@.X+@@@@@@@@@@@@@@@@@@@@@@@",
"@@@@@@@@@@@..+@@@@@@@@@@@@@@@@@@@@@@@@@@@@@.X+@@@@@@@@@@@@@@@@@@@@@@@@@@@@.X+@@@@@@@@@@@@@@@@@@@@@@@",
"@@@@@@@@@@@..+@@@@@@@@@@@@@@@@@@@@@@@@@@@@@.X+@@@@@@@@@@@@@@@@@@@@@@@@@@@@.X+@@@@@@@@@@@@@@@@@@@@@@@",
"@@@@@@@@@@@..+@@@@@@@@@@@@@@@@@@@@@@@@@@@@@.X+@@@@@@@@@@@@@@@@@@@@@@@@@@@@.X+@@@@@@@@@@@@@@@@@@@@@@@",
"@@@@@@@@@@@..+@@@@@@@@@@@@@@@@@@@@@@@@@@@@@.X+@@@@@@@@@@@@@@@@@@@@@@@@@@@@.X+@@@@@@@@@@@@@@@@@@@@@@@",
"@@@@@@@@@@@..+@@@@@@@@@@@@@@@@@@@@@@@@@@@@@.X+@@@@@@@@@@@@@@@@@@@@@@@@@@@@.X+@@@@@@@@@@@@@@@@@@@@@@@",
"@@@@@@@@@@@..+@@@@@@@@@@@@@@@@@@@@@@@@@@@@@.X+@@@@@@@@@@@@@@@@@@@@@@@@@@@@.X+@@@@@@@@@@@@@@@@@@@@@@@",
"@@@@@@@@@@@..+@@@@@@@@@@@@@@@@@@@@@@@@@@@@@.X+@@@@@@@@@@@@@@@@@@@@@@@@@@@@.X+@@@@@@@@@@@@@@@@@@@@@@@",
"@@@@@@@@@@@..+@@@@@@@@@@@@@@@@@@@@@@@@@@@@@.X+@@@@@@@@@@@@@@@@@@@@@@@@@@@@.X+@@@@@@@@@@@@@@@@@@@@@@@",
"@@@@@@@@@@@..+@@@@@@@@@@@@@@@@@@@@@@@@@@@@@.X+@@@@@@@@@@@@@@@@@@@@@@@@@@@@.X+@@@@@@@@@@@@@@@@@@@@@@@",
"@@@@@@@@@@@..+@@@@@@@@@@@@@@@@@@@@@@@@@@@@@.X+@@@@@@@@@@@@@@@@@@@@@@@@@@@@.X+@@@@@@@@@@@@@@@@@@@@@@@",
">>>>>>>>>>>333>>>>>>>>>>>>>>>>>>>>>>>>>>>>>33>>>>>>>>>>>>>>>>>>>>>>>>>>>>>33>>>>>>>>>>>>>>>>>>>>>>>>",
">>>>>>>>>>>333>>>>>>>>>>>>>>>>>>>>>>>>>>>>>33>>>>>>>>>>>>>>>>>>>>>>>>>>>>>33>>>>>>>>>>>>>>>>>>>>>>>>",
"....................................................................................................",
"@@@@@@@@@@@@@@@@@@@@@@@@@@@@@@@@@@@@@@@@@@@@@@@@@@@@@@@..@@@@@@@@@@@@@@@@@@@@@@@@@@@@@..@@@@@@@@@@@@",
"@@@@@@@@@@@@@@@@@@@@@@@@@@@@@@@@@@@@@@@@@@@@@@@@@@@@@@@..@@@@@@@@@@@@@@@@@@@@@@@@@@@@@..@@@@@@@@@@@@",
"@@@@@@@@@@@@@@@@@@@@@@@@@@@@@@@@@@@@@@@@@@@@@@@@@@@@@@@..@@@@@@@@@@@@@@@@@@@@@@@@@@@@@..@@@@@@@@@@@@",
"@@@@@@@@@@@@@@@@@@@@@@@@@@@@@@@@@@@@@@@@@@@@@@@@@@@@@@@..@@@@@@@@@@@@@@@@@@@@@@@@@@@@@..@@@@@@@@@@@@",
"@@@@@@@@@@@@@@@@@@@@@@@@@@@@@@@@@@@@@@@@@@@@@@@@@@@@@@@..@@@@@@@@@@@@@@@@@@@@@@@@@@@@@..@@@@@@@@@@@@",
"@@@@@@@@@@@@@@@@@@@@@@@@@@@                                                @@@@@@@@@@@..@@@@@@@@@@@@",
"@@@@@@@@@@@@@@@@@@@@@@@@@@  <<<<<<<<<<<<<<<<<<<<<<<<<<<<<<<<<<<<<<<<<<<<<<  @@@@@@@@@@..@@@@@@@@@@@@",
"@@@@@@@@@@@@@@@@@@@@@@@@@ 2 <111111111111111111111111111111111111111111111<  @@@@@@@@@..@@@@@@@@@@@@",
"@@@@@@@@@@@@@@@@@@@@@@@@  2 11222222222222222222222222222222222222222222211 1 @@@@@@@@..@@@@@@@@@@@@",
">>>>>>>>>>>>>>>>>>>>>>>> 122 222222222222222222222222222222222222222222222 21 >>>>>>>>33>>>>>>>>>>>>",
">>>>>>>>>>>>>>>>>>>>>>>> <12                                               1< >>>>>>>>33>>>>>>>>>>>>",
"........................ <122 ........................................... 21< ......................",
"........................ <<12 .......................................... 21< .......................",
"@@@@@..@@@@@@@@@@@@@@@@@@ <<12 @@@@@@@@@@@@@@@@@@@@@@@@@@@@@@@@@@@@@@@@ 22<< @@@@@@@@@@@@@@@@@@@@@@@",
"@@@@@..@@@@@@@@@@@@@@@@@@ <<122 @@@@@@@@@@@@@@@@@@@@@@@@@@@@@@@@@@@@@@@ 21<< @@@@@@@@@@@@@@@@@@@@@@@",
"@@@@@..@@@@@@@@@@@@@@@@@@@ <<12 @@@@@@@@@@@@@@@@@@@@@@@@@@@@@@@@@@@@@@ 21<< @@@@@@@@@@@@@@@@@@@@@@@@",
"@@@@@..@@@@@@@@@@@@@@@@@@@ <<122 @@@@@@@@@@@@@@@@@@@@@@@@@@@@@@@@@@@@@ 21<< @@@@@@@@@@@@@@@@@@@@@@@@",
"@@@@@..@@@@@@@@@@@@@@@@@@@@ <<122 @@@@@@@@@@@@@@@@@@@@@@@@@@@@@@@@@@@ 21<< @@@@@@@@@@@@@@@@@@@@@@@@@",
"@@@@@..@@@@@@@@@@@@@@@@@@@@@ <112 @@@@@@@@@@@@@@@@@@@@@@@@@@@@@@@@@@ 21<<< @@@@@@@@@@@@@@@@@@@@@@@@@",
"@@@@@..@@@@@@@@@@@@@@@@@@@@@ <<122 @@@@@@@@@@@@@@@@@@@@@@@@@@@@@@@@@ 21<< @@@@@@@@@@@@@@@@@@@@@@@@@@",
"@@@@@..@@@@@@@@@@@@@@@@@@@@@@ <<122 @@@@@@@@@@@@@@@@@@@@@@@@@@@@@@@ 21<< @@@@@@@@@@@@@@@@@@@@@@@@@@@",
">>>>>33>>>>>>>>>>>>>>>>>>>>>> <<112 >>>>>>>>>>>>>>>>>>>>>>>>>>>>>> 21<<< >>>>>>>>>>>>>>>>>>>>>>>>>>>",
">>>>>33>>>>>>>>>>>>>>>>>>>>>>> <<122 >>>>>>>>>>>>>>>>>>>>>>>>>>>> 221<< >>>>>>>>>>>>>>>>>>>>>>>>>>>>",
"............................... <1122 .......................... 221<< .............................",
"............................... <<122 .......................... 211<< .............................",
"@@@@@@@@@@@@@@@@@@.X@@@@@@@@@@@@ <<122 @@@@@@@@@@@@@@@@@@@@@@@@ 221<< @@@@@@@@@@@@.X@@@@@@@@@@@@@@@@",
"@@@@@@@@@@@@@@@@@@.X@@@@@@@@@@@@ <<112 @@@@@@@@@@@@@@@@@@@@@@@@ 21<<< @@@@@@@@@@@@.X@@@@@@@@@@@@@@@@",
"@@@@@@@@@@@@@@@@@@.X@@@@@@@@@@@@@ <<122 @@@@@@@@@@@@@@@@@@@@@@ 211<< @@@@@@@@@@@@@.X@@@@@@@@@@@@@@@@",
"@@@@@@@@@@@@@@@@@@.X@@@@@@@@@@@@@ <<1122 @@@@@@@@@@@@@@@@@@@@ 221<< @@@@@@@@@@@@@@.X@@@@@@@@@@@@@@@@",
"@@@@@@@@@@@@@@@@@@.X@@@@@@@@@@@@@@ <<112 @@@@@@@@@@@@@@@@@@@@ 21<<< @@@@@@@@@@@@@@.X@@@@@@@@@@@@@@@@",
"@@@@@@@@@@@@@@@@@@.X@@@@@@@@@@@@@@@ <<122 @@@@@@@@@@@@@@@@@@ 211<< @@@@@@@@@@@@@@@.X@@@@@@@@@@@@@@@@",
"@@@@@@@@@@@@@@@@@@.X@@@@@@@@@@@@@@@ <<1122 @@@@@@@@@@@@@@@@ 221<< @@@@@@@@@@@@@@@@.X@@@@@@@@@@@@@@@@",
"@@@@@@@@@@@@@@@@@@.X@@@@@@@@@@@@@@@@ <<122 @@@@@@@@@@@@@@@@ 211<< @@@@@@@@@@@@@@@@.X@@@@@@@@@@@@@@@@",
">>>>>>>>>>>>>>>>>>33>>>>>>>>>>>>>>>> <<1122 >>>>>>>>>>>>>> 211<< >>>>>>>>>>>>>>>>>33>>>>>>>>>>>>>>>>",
">>>>>>>>>>>>>>>>>>33>>>>>>>>>>>>>>>>> <<1122 >>>>>>>>>>>> 221<<< >>>>>>>>>>>>>>>>>33>>>>>>>>>>>>>>>>",
"...................................... <<122 ........... 2211<< ....................................",
"...................................... <<1122 .......... 211<< .....................................",
"@@@@@@@@@@@@@@@@@@@@@@@@@@@@@@@@.X@@@@@ <<1122 @@@@@@@@ 221<<< @@@@@@@@@@@@@@@@@@@@@@@@@@@@@@@..@@@@",
"@@@@@@@@@@@@@@@@@@@@@@@@@@@@@@@@.X@@@@@ <<1122 @@@@@@@ 2211<< .@@@@@@@@@@@@@@@@@@@@@@@@@@@@@@@..@@@@",
"@@@@@@@@@@@@@@@@@@@@@@@@@@@@@@@@.X@@@@@@ <<1122 @@@@@ 2211<< ..@@@@@@@@@@@@@@@@@@@@@@@@@@@@@@@..@@@@",
"@@@@@@@@@@@@@@@@@@@@@@@@@@@@@@@@.X@@@@@@ <<<122 @@@@@ 2211<< X.@@@@@@@@@@@@@@@@@@@@@@@@@@@@@@@..@@@@",
"@@@@@@@@@@@@@@@@@@@@@@@@@@@@@@@@.X@@@@@@@ <<1122 @@@ 2211<< @X.@@@@@@O@@@@@@@@@@@@@@@@@@@@@@@@..@@@@",
"@@@@@@@@@@@@@@@@@@@@@@@@@@@@@@@@.X@@@@@@@@ <<1122 @ 2211<<< @X.@@@@@@@@@@@@@@@@@@@@@@@@@@@@@@@..@@@@",
"@@@@@@@@@@@@@@@@@@@@@@@@@@@@@@@@.X@@@@@@@@ <<1122 @ 2211<< @@X.@@@@@@@@@@@@@@@@@@@@@@@@@@@@@@@..@@@@",
">>>>>>>>>>>>>>>>>>>>>>>>>>>>>>>>33>>>>>>>>> <<1122 2211<< >>>33>>>>>>>>>>>>>>>>>>>>>>>>>>>>>>>33>>>>",
">>>>>>>>>>>>>>>>>>>>>>>>>>>>>>>>33>>>>>>>>> <;;;;;;;;;;;< >>>33>>>>>>>>>>>>>>>>>>>>>>>>>>>>>>>33>>>>",
"............................................ ;;;;;;;;;;; .................XX........................",
"............................................$$$========:::...............XXX........................",
"@@@@@@@@@@@..@@@@@@@@@@@@@@@@@@@@@@@@@@@@@@@$&&;;;;;;;;-::@@@@@@@@@@@@@@@@@@@@@@@@@@@@@@@@@@@@@@@@@@",
"@@@@@@@@@@@..@@@@@@@@@@@@@@@@@@@@@@@@@@@@@$$&&*;;;;;;;;-:::@@@@@@@@@@@@@@@@@@@@@@@@@@@@@@@@@@@@@@@@@",
"@@@@@@@@@@@..@@@@@@@@@@@@@@@@@@@@@@@@@@@@@$$&*;;;;;;;;;-:::@@@@@@@@@@@@@@@@@@@@@@@@@@@@@@@@@@@@@@@@@",
"@@@@@@@@@@@..@@@@@@@@@@@@@@@@@@@@@@@@@@@@$$$&*;;;;%%;;;,--:::@@@@@@@@@@@@@@@@@@@@@@@@@@@@@@@@@@@@@@@",
"@@@@@@@@@@@..@@@@@@@@@@@@@@@@@@@@@@@@@@@@$$&*;;;;%%%;;;;,,-::@@@@@@@@@@@@@@@@@@@@@@@@@@@@@@@@@@@@@@@",
"@@@@@@@@@@@..@@@@@@@@@@@@@@@@@@@@@@@@@@@@$$&*;;;%%%%;;;;,,-::@@@@@@@@@@@@@@@@@@@@@@@@@@@@@@@@@@@@@@@",
"@@@@@@@@@@@..@@@@@@@@@@@@@@@@@@@@@@@@@@@@$$&*;;;;;%%;;;;,,-::@@@@@@@@@@@@@@@@@@@@@@@@@@@@@@@@@@@@@@@",
"@@@@@@@@@@@..@@@@@@@@@@@@@@@@@@@@@@@@@@@@$$&*;;;;;%%;;;;,,-::@@@@@@@@@@@@@@@@@@@@@@@@@@@@@@@@@@@@@@@",
"@@@@@@@@@@@..@@@@@@@@@@@@@@@@@@@@@@@@@@@@$$&*;;;;;%%;;;;,,-::@@@@@@@@@@@@@@@@@@@@@@@@@@@@@@@@@@@@@@@",
"@@@@@@@@@@@..@@@@@@@@@@@@@@@@@@@@@@@@@@@@$$&*;;;;;%%;;;;,,-::@@@@@@@@@@@@@@@@@@@@@@@@@@@@@@@@@@@@@@@",
">>>>>>>>>>>33>>>>>>>>>>>>>>>>>>>>>>>>>>>>$$&*;;;;;%%;;;;,,-::>>>>>>>>>>>>>>>>>>>>>>>>>>>>>>>>>>>>>>>",
">>>>>>>>>>>33>>>>>>>>>>>>>>>>>>>>>>>>>>>>$$&*;;;%%%%%%;;,,-::>>>>>>>>>>>>>>>>>>>>>>>>>>>>>>>>>>>>>>>",
".........................................$$&*;;%%%%%%%%;,,-::.......................................",
".........................................$$$&*;;;;;;;;;,--:::.......................................",
"@@@@@@@@@@@@@@@@@@@@@@@@.X@@@@@@@@@@@@@@@$$$&**;;;;;;;;,--:::@@@@@@@@@@@@@@@@@@@@@@@@@..@@@@@@@@@@@@",
"@@@@@@@@@@@@@@@@@@@@@@@@.X@@@@@@@@@@@@@@@@$$$&&;;;;;;;;-:::@@@@@@@@@@@@@@@@@@@@@@@@@@@..@@@@@@@@@@@@",
"@@@@@@@@@@@@@@@@@@@@@@@@.X@@@@@@@@@@@@@@@@$$$&&;;;;;;;;-:::@@@@@@@@@@@@@@@@@@@@@@@@@@@..@@@@@@@@@@@@",
"@@@@@@@@@@@@@@@@@@@@@@@@.X@@@@@@@@@@@@@@@@@@$$$========:::@@@@@@@@@@@@@@@@@@@@@@@@@@@@..@@@@@@@@@@@@",
"@@@@@@@@@@@@@@@@@@@@@@@@.X@@@@@@@@@@@@@@@@@@@;;;;;;;;;;;.+@@@@@@@@@@@@@@@@@@@@@@@@@@@@..@@@@@@@@@@@@",
"@@@@@@@@@@@@@@@@@@@@@@@@.X@@@@@@@@@@@@@@@@@@@;;;;;;;;;;;.+@@@@@@@@@@@@@@@@@@@@@@@@@@@@..@@@@@@@@@@@@",
"@@@@@@@@@@@@@@@@@@@@@@@@.X@@@@@@@@@@@@@@@@@@@@@@@@@@@@@..@@@@@@@@@@@@@@@@@@@@@@@@@@@@@..@@@@@@@@@@@@",
"@@@@@@@@@@@@@@@@@@@@@@@@.X@@@@@@@@@@@@@@@@@@@@@@@@@@@@@..@@@@@@@@@@@@@@@@@@@@@@@@@@@@@..@@@@@@@@@@@@",
">>>>>>>>>>>>>>>>>>>>>>>>33>>>>>>>>>>>>>>>>>>>>>>>>>>>>>33>>>>>>>>>>>>>>>>>>>>>>>>>>>>>33>>>>>>>>>>>>",
">>>>>>>>>>>>>>>>>>>>>>>>33>>>>>>>>>>>>>>>>>>>>>>>>>>>>>33>>>>>>>>>>>>>>>>>>>>>>>>>>>>>33>>>>>>>>>>>>",
".......o............................................................................................",
".......o............................................................................................",
"@@@@@..#@@@@@@@@@@@@@@@@@@@@@@@@@@@@..@@@@@@@@@@@@@@@@@@@@@@@@@@@@@@.X@@@@@@@@@@@@@@@@@@@@@@@@@@@@@@",
"@@@@@..#@@@@@@@@@@@@@@@@@@@@@@@@@@@@..@@@@@@@@@@@@@@@@@@@@@@@@@@@@@@.X@@@@@@@@@@@@@@@@@@@@@@@@@@@@@@",
"@@@@@..#@@@@@@@@@@@@@@@@@@@@@@@@@@@@..@@@@@@@@@@@@@@@@@@@@@@@@@@@@@@.X@@@@@@@@@@@@@@@@@@@@@@@@@@@@@@",
"@@@@@..#@@@@@@@@@@@@@@@@@@@@@@@@@@@@..@@@@@@@@@@@@@@@@@@@@@@@@@@@@@@.X@@@@@@@@@@@@@@@@@@@@@@@@@@@@@@",
"@@@@@..#@@@@@@@@@@@@@@@@@@@@@@@@@@@@..@@@@@@@@@@@@@@@@@@@@@@@@@@@@@@.X@@@@@@@@@@@@@@@@@@@@@@@@@@@@@@",
"@@@@@..#@@@@@@@@@@@@@@@@@@@@@@@@@@@@..@@@@@@@@@@@@@@@@@@@@@@@@@@@@@@.X@@@@@@@@@@@@@@@@@@@@@@@@@@@@@@",
"@@@@@..#@@@@@@@@@@@@@@@@@@@@@@@@@@@@..@@@@@@@@@@@@@@@@@@@@@@@@@@@@@@.X@@@@@@@@@@@@@@@@@@@@@@@@@@@@@@",
"@@@@@..#@@@@@@@@@@@@@@@@@@@@@@@@@@@@..@@@@@@@@@@@@@@@@@@@@@@@@@@@@@@.X@@@@@@@@@@@@@@@@@@@@@@@@@@@@@@",
">>>>>33>>>>>>>>>>>>>>>>>>>>>>>>>>>>>33>>>>>>>>>>>>>>>>>>>>>>>>>>>>>>33>>>>>>>>>>>>>>>>>>>>>>>>>>>>>>",
">>>>>33>>>>>>>>>>>>>>>>>>>>>>>>>>>>>33>>>>>>>>>>>>>>>>>>>>>>>>>>>>>>33>>>>>>>>>>>>>>>>>>>>>>>>>>>>>>"
};
