/* XPM */
static char *result[] = {
/* columns rows colors chars-per-pixel */
"60 60 5 1 ",
"  c black",
". c #900A10",
"X c #E58A5D",
"o c white",
"O c None",
/* pixels */
"OOOOOOOOOOOOOOOOOOOOOOOOOOOOOOOOOOOOOOOOOOOOOOOOOOOOOOOOOOOO",
"OOOOOOOOOOOOOOOOOOOOOOOOOOOOOOOOOOOOOOOOOOOOOOOOOOOOOOOOOOOO",
"OOOOOOOOOOOOOOOOOOOOOOOOOOOOOOOOOOOOOOOOOOOOOOOOOOOOOOOOOOOO",
"OOOOOOOOOOOOOOOOOOOOOOOOOOOOOOOOOOOOOOOOOOOOOOOOOOOOOOOOOOOO",
"OOOOOOOOOOOOOOOOOOOOOOOOOOOOOOOOOOOOOOOOOOOOOOOOOOOOOOOOOOOO",
"OOOOOOOOOOOOOOOOOOOOOOOOOOOOOOOOOOOOOOOOOOOOOOOOOOOOOOOOOOOO",
"OOOOOOOOOOOOOOOOOOOOOOOOOOOOOOOOOOOOOOOOOOOOOOOOOOOOOOOOOOOO",
"OOOOOOOOOOOOOOOOOOOOOOOOOOOOOOOOOOOOOOOOOOOOOOOOOOOOOOOOOOOO",
"OOOOOOOOOOOOOOOOOOOOOOOOOOOOOOOOOOOOOOOOOOOOOOOOOOOOOOOOOOOO",
"OOOOOOOOOOOOOOOOOOOOOOOOOOOOOOOOOOOOOOOOOOOOOOOOOOOOOOOOOOOO",
"OOOOOOOOOOOOOOOOOOOOOOOOOOOOOOOOOOOOOOOOOOOOOOOOOOOOOOOOOOOO",
"OOOOOOOOOOOOOOOOOOOOOOOOOOOOOOOOOOOOOOOOOOOOOOOOOOOOOOOOOOOO",
"OOOOOOOOOOOOOOOOOOOOOOOOOOOOOOOOOOOOOOOOOOOOOOOOOOOOOOOOOOOO",
"OOOOOOOOOOOOOOOOOOOOOOOOOOOOO    OOOOOOOOOOOOOOOOOOOOOOOOOOO",
"OOOOOOOOOOOOOOOOOOOOOOOOOOOO oooo     OOOOOOOOOOOOOOOOOOOOOO",
"OOOOOOOOOOOOOOOOOOOOOOOOOOOO oooooooo OOOOOOOOOOOOOOOOOOOOOO",
"OOOOOOOOOOOOOOOOOOOOOOOOOOO  oooooooo OOOOOOOOOOOOOOOOOOOOOO",
"OOOOOOOOOOOOOOOOOOOOOOOOOOO oooooooo OOOOOOOOOOOOOOOOOOOOOOO",
"OOOOOOOOOOOOOOOOOOOOOOOOOOO ooXXXXXX OOOOOOOOOOOOOOOOOOOOOOO",
"OOOOOOOOOOOOOOOOOOOOOOOOOOO ooXXXoXo OOOOOOOOOOOOOOOOOOOOOOO",
"OOOOOOOOOOOOOOOOOOOOOOOOOOOO  XXXXXX OOO  OOOOOOOOOOOOOOOOOO",
"OOOOOOOOOOOOOOOOOOOOOOOOO   XX X  XX OO ..  OOOOOOOOOOOOOOOO",
"OOOOOOOOOOOOOOOOOOOOOOOO XXXXX  .. OOOO .... OOOOOOOOOOOOOOO",
"OOOOOOOOOOOOOOOOOOOOOOOO XXXXXX ... OO ..... OOOOOOOOOOOOOOO",
"OOOOOOOOOOOOOOOOOOOOOOO XXXXXX .... OO .... OOOOOOOOOOOOOOOO",
"OOOOOOOOOOOOOOOOOOOOOOO XX XXX .... O .... OOOOOOOOOOOOOOOOO",
"OOOOOOOOOOOOOOOOOOOOOOOO XX X  ...  O     OOOOOOOOOOOOOOOOOO",
"OOOOOOOOOOOOOOOOOOOOOOOO XX  XX   XX XXX OOOOOOOOOOOOOOOOOOO",
"OOOOOOOOOOOOOOOOOOOOOOOO XX XXX X XXXXX OOOOOOOOOOOOOOOOOOOO",
"OOOOOOOOOOOOOOOOOOOOOOOO XXXXXX X XXXXX OOOOOOOOOOOOOOOOOOOO",
"OOOOOOOOOOOOOOOOOOOOOOOO XXXXX XXX XX  OOOOOOOOOOOOOOOOOOOOO",
"OOOOOOOOOOOOOOOOOOOOOOOO XXXXX XX O  OOOOOOOOOOOOOOOOOOOOOOO",
"OOOOOOOOOOOOOOOOOOOOOOOO  XX  ooo OOOOOOOOOOOOOOOOOOOOOOOOOO",
"OOOOOOOOOOOOOOOOOOOOOOO o   oooooo OOOOOOOOOOOOOOOOOOOOOOOOO",
"OOOOOOOOOOOOOOOOOOOOOOO .......... OOOOOOOOOOOOOOOOOOOOOOOOO",
"OOOOOOOOOOOOOOOOOOOOOO ............ OOOOOOOOOOOOOOOOOOOOOOOO",
"OOOOOOOOOOOOOOOOOOOOO .............. OOOOOOOOOOOOOOOOOOOOOOO",
"OOOOOOOOOOOOOOOOOOOOO .............. OOOOOOOOOOOOOOOOOOOOOOO",
"OOOOOOOOOOOOOOOOOOOOO ............... OOOOOOOOOOOOOOOOOOOOOO",
"OOOOOOOOOOOOOOOOOOOOO ............... OOOOOOOOOOOOOOOOOOOOOO",
"OOOOOOOOOOOOOOOOOOOO  ................ OOOOOOOOOOOOOOOOOOOOO",
"OOOOOOOOOOOOOOOOOOOO ......... ........ OOOOOOOOOOOOOOOOOOOO",
"OOOOOOOOOOOOOOOOOOOO ........ O ........ OOOOOOOOOOOOOOOOOOO",
"OOOOOOOOOOOOOOOOOOOO ........ O ........  OOOOOOOOOOOOOOOOOO",
"OOOOOOOOOOOOOOOOOOOO ....... OOO ...... X OOOOOOOOOOOOOOOOOO",
"OOOOOOOOOOOOOOOOOOOO      .. OOOO ..    XX OOOOOOOOOOOOOOOOO",
"OOOOOOOOOOOOOOOOOOOO XXXXX  OOOOO   OO XXX OOOOOOOOOOOOOOOOO",
"OOOOOOOOOOOOOOOOOOOO XXXXX OOOOOOOOOOO XXXX OOOOOOOOOOOOOOOO",
"OOOOOOOOOOOOOOOOO    XXXXX OOOOOOOOOOO  XXXX OOOOOOOOOOOOOOO",
"OOOOOOOOOOOOOOOO XXXXXXXXX OOOOOOOOOOOO XXXX OOOOOOOOOOOOOOO",
"OOOOOOOOOOOOOOO XXXXXXXXX OOOOOOOOOOOOO  XXX OOOOOOOOOOOOOOO",
"OOOOOOOOOOOOOO XXXXXXXX  OOOOOOOOOOOOOOO XXXX OOOOOOOOOOOOOO",
"OOOOOOOOOOOOO XXXXXXXX OOOOOOOOOOOOOOOOO XXXX OOOOOOOOOOOOOO",
"OOOOOOOOOOOOO XXXXX   OOOOOOOOOOOOOOOOOO       OOOOOOOOOOOOO",
"OOOOOOOOOOOO o XX  OOOOOOOOOOOOOOOOOOOOO ooooo OOOOOOOOOOOOO",
"OOOOOOOOOOO ooo   OOOOOOOOOOOOOOOOOOOOOOO oooo OOOOOOOOOOOOO",
"OOOOOOOOOOO ooo OOOOOOOOOOOOOOOOOOOOOOOOO oooo OOOOOOOOOOOOO",
"OOOOOOOOOO oooo OOOOOOOOOOOOOOOOOOOOOOOOOO oooo  OOOOOOOOOOO",
"OOOOOOOOOO ooooo OOOOOOOOOOOOOOOOOOOOOOOOO ooooo OOOOOOOOOOO",
"OOOOOOOOOO        OOOOOOOOOOOOOOOOOOOOOOOO       OOOOOOOOOOO"
};
