/* XPM */
static char *result[] = {
/* columns rows colors chars-per-pixel */
"60 60 5 1 ",
"  c black",
". c #900A10",
"X c #E58A5D",
"o c white",
"O c None",
/* pixels */
"OOOOOOOOOOOOOOOOOOOOOOOOOOOOOOOOOOOOOOOOOOOOOOOOOOOOOOOOOOOO",
"OOOOOOOOOOOOOOOOOOOOOOOOOOOOOOOOOOOOOOOOOOOOOOOOOOOOOOOOOOOO",
"OOOOOOOOOOOOOOOOOOOOOOOOOOOOOOOOOOOOOOOOOOOOOOOOOOOOOOOOOOOO",
"OOOOOOOOOOOOOOOOOOOOOOOOOOOOOOOOOOOOOOOOOOOOOOOOOOOOOOOOOOOO",
"OOOOOOOOOOOOOOOOOOOOOOOOOOOOOOOOOOOOOOOOOOOOOOOOOOOOOOOOOOOO",
"OOOOOOOOOOOOOOOOOOOOOOOOOOOOOOOOOOOOOOOOOOOOOOOOOOOOOOOOOOOO",
"OOOOOOOOOOOOOOOOOOOOOOOOOOOOOOOOOOOOOOOOOOOOOOOOOOOOOOOOOOOO",
"OOOOOOOOOOOOOOOOOOOOOOOOOOOOOOOOOOOOOOOOOOOOOOOOOOOOOOOOOOOO",
"OOOOOOOOOOOOOOOOOOOOOOOOOOOOOOOOOOOOOOOOOOOOOOOOOOOOOOOOOOOO",
"OOOOOOOOOOOOOOOOOOOOOOOOOOOOOOOOOOOOOOOOOOOOOOOOOOOOOOOOOOOO",
"OOOOOOOOOOOOOOOOOOOOOOOOOOOOOOOOOOOOOOOOOOOOOOOOOOOOOOOOOOOO",
"OOOOOOOOOOOOOOOOOOOOOOOOOOOOOOOOOOOOOOOOOOOOOOOOOOOOOOOOOOOO",
"OOOOOOOOOOOOOOOOOOOOOOOOOOOOOOOOOOOOOOOOOOOOOOOOOOOOOOOOOOOO",
"OOOOOOOOOOOOOOOOOOOOOOOOOOOOOOOOOOOOOOOOOOOOOOOOOOOOOOOOOOOO",
"OOOOOOOOOOOOOOOOOOOOOOOOOOOOOOOOOOOOOOOOOOOOOOOOOOOOOOOOOOOO",
"OOOOOOOOOOOOOOOOOOOOOOOOOOOOOOOOOOOOOOOOOOOOOOOOOOOOOOOOOOOO",
"OOOOOOOOOOOOOOOOOOOOOOOOOOOOO    OOOO OOOOOOOOOOOOOOOOOOOOOO",
"OOOOOOOOOOOOOOOOOOOOOOOOOOOO oooo    o OOOOOOOOOOOOOOOOOOOOO",
"OOOOOOOOOOOOOOOOOOOOOOOOOOOO ooooooooo OOOOOOOOOOOOOOOOOOOOO",
"OOOOOOOOOOOOOOOOOOOOOOOOOOO  ooooooooo OOOOOOOOOOOOOOOOOOOOO",
"OOOOOOOOOOOOOOOOOOOOOOOOOOO oooooooo  OOOOOOOOOOOOOOOOOOOOOO",
"OOOOOOOOOOOOOOOOOOOOOOOOOOO ooXXXXXX OOOOOOOOOOOOOOOOOOOOOOO",
"OOOOOOOOOOOOOOOOOOOOOOOOOOO ooXXXoXo OOOOOOOOOOOOOOOOOOOOOOO",
"OOOOOOOOOOOOOOOOOOOOOOOOO     XX  XX OOO  OOOOOOOOOOOOOOOOOO",
"OOOOOOOOOOOOOOOOOOOOOOOO XXXXX  .. X OO ..  OOOOOOOOOOOOOOOO",
"OOOOOOOOOOOOOOOOOOOOOOOO XXXXX  ... OOO .... OOOOOOOOOOOOOOO",
"OOOOOOOOOOOOOOOOOOOOOOO XXXXXX .... OO ..... OOOOOOOOOOOOOOO",
"OOOOOOOOOOOOOOOOOOOOOOO XX XXX .... OO .... OOOOOOOOOOOOOOOO",
"OOOOOOOOOOOOOOOOOOOOOOOO X XX  ...  O .... OOOOOOOOOOOOOOOOO",
"OOOOOOOOOOOOOOOOOOOOOOOO XX  XX   X O     OOOOOOOOOOOOOOOOOO",
"OOOOOOOOOOOOOOOOOOOOOOOO XX XXX X XX XXX OOOOOOOOOOOOOOOOOOO",
"OOOOOOOOOOOOOOOOOOOOOOOO XXXXXX X XXXXX OOOOOOOOOOOOOOOOOOOO",
"OOOOOOOOOOOOOOOOOOOOOOOO XXXXX XX XXXXX OOOOOOOOOOOOOOOOOOOO",
"OOOOOOOOOOOOOOOOOOOOOOOO XXXXX XXX XX  OOOOOOOOOOOOOOOOOOOOO",
"OOOOOOOOOOOOOOOOOOOOOOOO  XX  XXX    OOOOOOOOOOOOOOOOOOOOOOO",
"OOOOOOOOOOOOOOOOOOOOOOOO    ooooo OOOOOOOOOOOOOOOOOOOOOOOOOO",
"OOOOOOOOOOOOOOOOOOOOOOO ooooooooooOOOOOOOOOOOOOOOOOOOOOOOOOO",
"OOOOOOOOOOOOOOOOOOOOOOO .......... OOOOOOOOOOOOOOOOOOOOOOOOO",
"OOOOOOOOOOOOOOOOOOOOO  ............  OOOOOOOOOOOOOOOOOOOOOOO",
"OOOOOOOOOOOOOOOOOOOOO ..............  OOOOOOOOOOOOOOOOOOOOOO",
"OOOOOOOOOOOOOOOOOOOOO ............... OOOOOOOOOOOOOOOOOOOOOO",
"OOOOOOOOOOOOOOOOOOOO  ................ OOOOOOOOOOOOOOOOOOOOO",
"OOOOOOOOOOOOOOOOOOOO ......... ........ OOOOOOOOOOOOOOOOOOOO",
"OOOOOOOOOOOOOOOOOOOO ........ O ........ OOOOOOOOOOOOOOOOOOO",
"OOOOOOOOOOOOOOOOOOOO ........ O ........  OOOOOOOOOOOOOOOOOO",
"OOOOOOOOOOOOOOOOOOOO ....... OOO ...... X OOOOOOOOOOOOOOOOOO",
"OOOOOOOOOOOOOOOOOOOO      .. OOOO ..    XX OOOOOOOOOOOOOOOOO",
"OOOOOOOOOOOOOOOOOOOO XXXXX  OOOOO   OO XXX OOOOOOOOOOOOOOOOO",
"OOOOOOOOOOOOOOOOOOOO XXXXX OOOOOOOOOOO XXXX OOOOOOOOOOOOOOOO",
"OOOOOOOOOOOOOOOOO    XXXXX OOOOOOOOOOO  XXXX OOOOOOOOOOOOOOO",
"OOOOOOOOOOOOOOO  XXXXXXXXX OOOOOOOOOOOO XXXX OOOOOOOOOOOOOOO",
"OOOOOOOOOOOOOO XXXXXXXXXX OOOOOOOOOOOOO  XXXX OOOOOOOOOOOOOO",
"OOOOOOOOOOOOO XXXXXXXX   OOOOOOOOOOOOOOO XXXX OOOOOOOOOOOOOO",
"OOOOOOOOOOOOO XXXXX   OOOOOOOOOOOOOOOOOO       OOOOOOOOOOOOO",
"OOOOOOOOOOOO o XX  OOOOOOOOOOOOOOOOOOOOO ooooo OOOOOOOOOOOOO",
"OOOOOOOOOOO ooo   OOOOOOOOOOOOOOOOOOOOOOO oooo OOOOOOOOOOOOO",
"OOOOOOOOOOO ooo OOOOOOOOOOOOOOOOOOOOOOOOO oooo OOOOOOOOOOOOO",
"OOOOOOOOOO oooo OOOOOOOOOOOOOOOOOOOOOOOOOO oooo  OOOOOOOOOOO",
"OOOOOOOOOO ooooo OOOOOOOOOOOOOOOOOOOOOOOOO ooooo OOOOOOOOOOO",
"OOOOOOOOOO        OOOOOOOOOOOOOOOOOOOOOOOO       OOOOOOOOOOO"
};
